<?xml version="1.0" encoding="iso-8859-1"?>
<!-- Generator: Adobe Illustrator 19.0.0, SVG Export Plug-In . SVG Version: 6.00 Build 0)  -->
<svg version="1.1" id="Layer_1" xmlns="http://www.w3.org/2000/svg" xmlns:xlink="http://www.w3.org/1999/xlink" x="0px" y="0px"
	 viewBox="0 0 460 460" style="enable-background:new 0 0 460 460;" xml:space="preserve">
<g id="XMLID_228_">
	<path id="XMLID_229_" style="fill:#FFAE46;" d="M230,0C102.974,0,0,102.975,0,230c0,99.311,62.943,183.919,151.112,216.112l295-295
		C413.919,62.943,329.311,0,230,0z"/>
	<path id="XMLID_230_" style="fill:#FE843F;" d="M446.112,151.112L360,65L100,395l51.112,51.112
		C175.717,455.096,202.285,460,230,460c127.026,0,230-102.975,230-230C460,202.286,455.096,175.717,446.112,151.112z"/>
	<polygon id="XMLID_231_" style="fill:#FC5A37;" points="210,85 190,85 190,65 200,55 210,65 	"/>
	<polygon id="XMLID_232_" style="fill:#7BE3FF;" points="100,375 100,395 230,395 240,385 230,375 165,365 	"/>
	<polygon id="XMLID_233_" style="fill:#E0F8FF;" points="100,355 100,375 230,375 240,365 230,355 165,345 	"/>
	<polygon id="XMLID_235_" style="fill:#FFFFFF;" points="100,65 100,355 230,355 240,210 230,65 	"/>
	<polygon id="XMLID_236_" style="fill:#48D9FF;" points="230,375 230,395 360,395 360,375 295,365 	"/>
	<polygon id="XMLID_237_" style="fill:#ADEEFF;" points="230,355 230,375 360,375 360,355 295,345 	"/>
	<rect id="XMLID_238_" x="280" y="275" style="fill:#7BE3FF;" width="80" height="80"/>
	<polygon id="XMLID_239_" style="fill:#E0F8FF;" points="230,65 230,355 280,355 360,275 360,65 	"/>
	<polygon id="XMLID_240_" style="fill:#A8CFFF;" points="160,156.25 160,176.25 230,176.25 240,166.25 230,156.25 	"/>
	<polygon id="XMLID_241_" style="fill:#A8CFFF;" points="160,196.25 160,216.25 230,216.25 240,206.25 230,196.25 	"/>
	<polygon id="XMLID_242_" style="fill:#A8CFFF;" points="160,236.25 160,256.25 230,256.25 240,246.25 230,236.25 	"/>
	<rect id="XMLID_243_" x="230" y="156.25" style="fill:#73A7E6;" width="70" height="20"/>
	<rect id="XMLID_244_" x="230" y="196.25" style="fill:#73A7E6;" width="70" height="20"/>
	<rect id="XMLID_245_" x="230" y="236.25" style="fill:#73A7E6;" width="70" height="20"/>
	<polygon id="XMLID_307_" style="fill:#ADEEFF;" points="280,275 280,355 360,275 	"/>
	<path id="XMLID_308_" style="fill:#FC5A37;" d="M240,135c-16.542,0-30-13.458-30-30V85h20v20c0,5.514,4.486,10,10,10
		s10-4.486,10-10V65c0-11.028-8.972-20-20-20s-20,8.972-20,20h-20c0-22.056,17.944-40,40-40s40,17.944,40,40v40
		C270,121.542,256.542,135,240,135z"/>
</g>
<g>
</g>
<g>
</g>
<g>
</g>
<g>
</g>
<g>
</g>
<g>
</g>
<g>
</g>
<g>
</g>
<g>
</g>
<g>
</g>
<g>
</g>
<g>
</g>
<g>
</g>
<g>
</g>
<g>
</g>
</svg>
