<svg height="512" viewBox="0 0 64 64" width="512" xmlns="http://www.w3.org/2000/svg"><path d="m61 11v34a2.006 2.006 0 0 1 -2 2h-6v-4h3a1 1 0 0 0 1-1v-28a1 1 0 0 0 -1-1h-40a1 1 0 0 0 -1 1v3h-4v-6a2.006 2.006 0 0 1 2-2h46a2.006 2.006 0 0 1 2 2z" fill="#8b5e3c"/><path d="m57 14v28a1 1 0 0 1 -1 1h-3v-24a2.006 2.006 0 0 0 -2-2h-36v-3a1 1 0 0 1 1-1h40a1 1 0 0 1 1 1z" fill="#e6e7e8"/><path d="m55 19a2.006 2.006 0 0 0 -2-2h-2a2.006 2.006 0 0 1 2 2v24h2z" fill="#d1d3d4"/><path d="m53 43h2v4h-2z" fill="#754c29"/><rect fill="#a97c50" height="38" rx="2" width="50" x="3" y="17"/><path d="m49 45v5a1 1 0 0 1 -1 1h-17l-7-7 6.5-6.5 3.5 3.5 2-2 2 2 3.5-3.5z" fill="#00b39d"/><path d="m49 22v23l-13-13-12 12-8-8-9 9v-23a1 1 0 0 1 1-1h40a1 1 0 0 1 1 1z" fill="#e6e7e8"/><circle cx="41" cy="27" fill="#ff5023" r="2"/><path d="m41.5 37.5-3.5 3.5-2-2-2 2-3.5-3.5 5.5-5.5z" fill="#00ddc2"/><path d="m24 28a2 2 0 0 1 0 4h-5a2 2 0 0 1 0-4h1a2 2 0 0 1 4 0z" fill="#bddbff"/><path d="m24 44-3-3-3 3-2-2-2 2-3-3-4 4v5a1 1 0 0 0 1 1h23z" fill="#00ccb3"/><path d="m33 51h-2l-7-7 1-1z" fill="#00a691"/><path d="m21 41-3 3-2-2-2 2-3-3 5-5z" fill="#00ddc2"/></svg>